<svg width="99" height="21" fill="none"><path d="M.73.56h4.2l2.4 12.26L9.87.56h4.06L14.29 20H11.4L11.1 6.8 8.6 20H6.15L3.58 6.73 3.3 20H.4L.72.56zm21.87 19.7c-2.06 0-3.54-.53-4.42-1.6-.88-1.1-1.32-2.68-1.32-4.78V6.63c0-2.1.44-3.67 1.32-4.73C19.06.85 20.54.32 22.6.32c2.05 0 3.51.54 4.4 1.6.89 1.06 1.34 2.63 1.34 4.71v7.27c0 2.08-.45 3.67-1.35 4.76-.88 1.07-2.34 1.6-4.39 1.6zm0-2.83c.67 0 1.12-.22 1.34-.67.24-.46.36-1.1.36-1.9V5.67c0-.8-.12-1.41-.36-1.85-.22-.44-.67-.67-1.34-.67s-1.13.23-1.37.67a4.1 4.1 0 00-.33 1.85v9.2c0 .81.1 1.44.33 1.89.23.45.68.67 1.37.67zm13.85 2.83a6.7 6.7 0 01-3.38-.72c-.82-.5-1.4-1.2-1.73-2.13-.34-.93-.5-2.11-.5-3.55V.56h3.88v13.85c0 .93.12 1.65.34 2.18.22.53.69.8 1.4.8.7 0 1.16-.27 1.38-.8.23-.53.34-1.25.34-2.18V.56h3.91v13.3c0 1.44-.17 2.62-.5 3.55a4 4 0 01-1.75 2.13 6.7 6.7 0 01-3.39.72zm8.4-19.7h2.76l4.32 10.1V.56h3.3V20h-2.67L48.24 9.25V20h-3.39V.56zm15.12 2.93h-3V.56h9.93v2.93h-2.95V20h-3.98V3.49zM70.77.56h4.4L78.9 20h-3.65l-.72-4.27h-3.07L70.72 20H67L70.77.56zm3.39 12.72l-1.18-7.82-1.15 7.82h2.33zM80.93.56h3.93V20h-3.93V.56zm6.89 0h2.76l4.32 10.1V.56h3.28V20h-2.66L91.2 9.25V20h-3.38V.56z" fill="#FCFCFC"/></svg>